<svg viewBox="0 0 119 33" fill="none" xmlns="http://www.w3.org/2000/svg">
<path d="M105.873 26.9195C109.555 26.9195 111.682 22.5013 111.682 18.8194C111.682 16.6103 110.7 14.1558 107.755 14.1558C103.746 14.1558 101.946 19.1467 101.946 22.4195C101.864 25.2831 103.5 26.9195 105.873 26.9195ZM104.891 32.1559C99.4094 32.1559 94.9912 28.8013 94.9912 22.5831C94.9912 14.8921 100.555 9.08301 108.491 9.08301C114.3 9.08301 118.473 12.9285 118.473 18.6558C118.555 26.9195 112.582 32.1559 104.891 32.1559Z" fill="#0C7B4C"/>
<path d="M22.419 0.818188H12.4371C8.83708 0.818188 4.58251 2.78184 3.43705 7.20005C2.7825 9.81825 3.27341 11.6183 3.27341 11.6183C3.27341 11.6183 6.95525 7.11823 14.1553 7.11823H20.619C24.7099 7.11823 26.7554 2.94548 25.5281 0C24.9554 0.490913 23.5645 0.818188 22.419 0.818188Z" fill="#B8D056"/>
<path d="M49.336 9.49219L45.1633 31.5833H38.3723L41.5633 14.7286H36.245L35.5087 18.5741C34.3632 24.3832 32.5632 28.1469 30.5177 30.0287C28.3086 31.9924 25.5268 32.4833 23.8904 31.7469C21.9267 30.9287 22.5813 28.4742 22.5813 28.4742C24.054 28.2287 25.1995 27.3287 26.1813 26.1832C27.4086 24.7923 28.6359 21.6832 29.2904 18.165C29.2904 18.165 29.945 15.0559 30.2723 13.2559C30.5995 11.4558 31.4995 9.49219 34.445 9.49219H49.336Z" fill="#0C7B4C"/>
<path d="M66.7629 14.3182C66.272 14.2364 65.6174 14.1546 64.881 14.1546C60.5446 14.1546 57.1083 18.491 57.1083 22.9092C57.1083 25.2001 58.1719 26.6729 60.1356 26.6729C62.181 26.6729 65.0447 24.5456 66.0265 18.6546L66.7629 14.3182ZM67.3356 31.582C65.0447 31.582 64.9629 29.4547 65.372 27.0001C65.372 27.0001 62.9174 32.1547 57.1901 32.1547C53.0173 32.1547 49.9082 28.9638 49.9082 24.1365C49.9082 16.4455 55.3901 9 66.7629 9C69.5447 9 72.572 9.57273 74.4538 10.1455C74.4538 10.1455 71.9175 21.2728 71.4265 31.582H67.3356Z" fill="#0C7B4C"/>
<path d="M79.8538 10.0636C81.6538 9.24546 84.272 9 86.1539 9C91.3084 9.08182 94.0085 11.4546 94.0085 15.2182C94.0085 19.2274 90.4084 21.1092 85.9084 22.7456C83.372 23.7274 81.8175 24.3819 81.8175 25.691C81.8175 26.591 82.472 27.2456 84.1902 27.2456C86.6448 27.2456 89.7539 26.0183 91.3084 25.2001C91.3084 25.2001 92.2903 26.2638 92.0448 28.0638C91.7993 29.8638 90.8993 30.6002 89.5084 31.1729C87.4629 32.0729 84.9266 32.1547 83.2084 32.1547C77.8902 32.0729 74.6992 30.0274 74.6992 25.9365C74.6992 21.1092 78.9538 19.5546 82.9629 18.1637C85.2538 17.3455 87.2993 16.6091 87.2993 15.3819C87.2993 14.4819 86.3993 13.9091 84.8448 13.9091C81.572 13.9091 78.4629 15.4637 78.4629 15.4637C78.4629 15.4637 77.972 14.6455 77.8083 13.1728C77.7265 11.4546 79.0356 10.3909 79.8538 10.0636Z" fill="#0C7B4C"/>
<path d="M15.3819 24.3823C11.8637 27.3278 7.52733 26.7551 7.52733 26.7551L9.32734 16.3641C9.32734 16.3641 11.5364 13.9095 14.8092 14.3186C19.4729 14.8914 18.9001 21.4369 15.3819 24.3823ZM22.0093 12.1913C20.0456 10.1459 17.1819 9.00041 14.3183 9.08223C6.70914 9.24587 2.94548 15.3823 2.94548 15.3823L0 31.4188C0 31.4188 3.60003 31.8279 7.85461 31.746C12.4365 31.6642 17.7547 31.6642 21.6002 27.4915C25.5275 23.2369 26.0184 16.2823 22.0093 12.1913Z" fill="#0C7B4C"/>
</svg>
